<svg width="16" height="14" viewBox="0 0 16 14" fill="none" xmlns="http://www.w3.org/2000/svg">
<path fill-rule="evenodd" clip-rule="evenodd" d="M8.27372 0.711216C8.3608 0.62391 8.46426 0.554642 8.57815 0.50738C8.69205 0.460118 8.81415 0.435791 8.93747 0.435791C9.06078 0.435791 9.18288 0.460118 9.29678 0.50738C9.41068 0.554642 9.51413 0.62391 9.60122 0.711216L15.2262 6.33622C15.3135 6.4233 15.3828 6.52676 15.4301 6.64065C15.4773 6.75455 15.5016 6.87665 15.5016 6.99997C15.5016 7.12328 15.4773 7.24538 15.4301 7.35928C15.3828 7.47318 15.3135 7.57663 15.2262 7.66372L9.60122 13.2887C9.42518 13.4648 9.18642 13.5636 8.93747 13.5636C8.68851 13.5636 8.44975 13.4648 8.27372 13.2887C8.09768 13.1127 7.99878 12.8739 7.99878 12.625C7.99878 12.376 8.09768 12.1373 8.27372 11.9612L13.2368 6.99997L8.27372 2.03872C8.18641 1.95163 8.11714 1.84818 8.06988 1.73428C8.02262 1.62038 7.99829 1.49828 7.99829 1.37497C7.99829 1.25165 8.02262 1.12955 8.06988 1.01565C8.11714 0.901756 8.18641 0.798302 8.27372 0.711216Z" fill="#8643DC"/>
<path fill-rule="evenodd" clip-rule="evenodd" d="M0.5 7C0.5 6.75136 0.598772 6.5129 0.774588 6.33709C0.950403 6.16127 1.18886 6.0625 1.4375 6.0625H13.625C13.8736 6.0625 14.1121 6.16127 14.2879 6.33709C14.4637 6.5129 14.5625 6.75136 14.5625 7C14.5625 7.24864 14.4637 7.4871 14.2879 7.66291C14.1121 7.83873 13.8736 7.9375 13.625 7.9375H1.4375C1.18886 7.9375 0.950403 7.83873 0.774588 7.66291C0.598772 7.4871 0.5 7.24864 0.5 7Z" fill="#8643DC"/>
</svg>
