<svg width="17" height="18" viewBox="0 0 17 18" fill="none" xmlns="http://www.w3.org/2000/svg">
<path fill-rule="evenodd" clip-rule="evenodd" d="M8.78158 1.17007C9.53061 0.421042 10.5465 0.000244141 11.6058 0.000244141C12.6651 0.000244141 13.681 0.421042 14.43 1.17007C15.179 1.91909 15.5998 2.93499 15.5998 3.99427C15.5998 5.05355 15.179 6.06944 14.43 6.81847L7.52158 13.7269C7.30829 13.9402 7.05506 14.1095 6.77635 14.225C6.49764 14.3405 6.19891 14.4 5.89721 14.4001C5.2879 14.4002 4.70351 14.1582 4.27258 13.7275C3.84166 13.2967 3.59951 12.7124 3.59939 12.1031C3.59928 11.4938 3.84122 10.9094 4.27198 10.4785L10.974 3.77527L11.8236 4.62487L5.12038 11.3269C5.0185 11.4287 4.93769 11.5497 4.88255 11.6828C4.82742 11.8159 4.79904 11.9586 4.79904 12.1027C4.79904 12.2467 4.82742 12.3894 4.88255 12.5225C4.93769 12.6556 5.0185 12.7766 5.12038 12.8785C5.22226 12.9803 5.34321 13.0612 5.47632 13.1163C5.60944 13.1714 5.7521 13.1998 5.89618 13.1998C6.04026 13.1998 6.18293 13.1714 6.31604 13.1163C6.44916 13.0612 6.5701 12.9803 6.67198 12.8785L13.5804 5.97007C13.8399 5.7106 14.0457 5.40257 14.1861 5.06356C14.3265 4.72455 14.3988 4.36121 14.3988 3.99427C14.3988 3.62733 14.3265 3.26398 14.1861 2.92497C14.0457 2.58596 13.8399 2.27793 13.5804 2.01847C13.3209 1.759 13.0129 1.55318 12.6739 1.41276C12.3349 1.27234 11.9715 1.20006 11.6046 1.20006C11.2376 1.20006 10.8743 1.27234 10.5353 1.41276C10.1963 1.55318 9.88825 1.759 9.62878 2.01847L2.51518 9.13327C1.68997 9.97906 1.2313 11.116 1.23858 12.2976C1.24586 13.4793 1.71849 14.6104 2.55405 15.446C3.38962 16.2816 4.52079 16.7542 5.70244 16.7615C6.88408 16.7687 8.02099 16.3101 8.86678 15.4849L15.7752 8.57527L16.6248 9.42487L9.71518 16.3333C8.64138 17.3685 7.20413 17.9408 5.71265 17.9271C4.22118 17.9133 2.79469 17.3147 1.7401 16.26C0.6855 15.2052 0.0870834 13.7786 0.0735972 12.2872C0.0601111 10.7957 0.632633 9.35852 1.66798 8.28487L8.78158 1.16887V1.17007Z" fill="#637085"/>
</svg>
